<svg id="Layer_1" data-name="Layer 1" xmlns="http://www.w3.org/2000/svg" xmlns:xlink="http://www.w3.org/1999/xlink" viewBox="0 0 422.96 402.71"><defs><style>.cls-1{fill:url(#radial-gradient);}.cls-2{fill:url(#linear-gradient);}.cls-3{fill:url(#linear-gradient-2);}.cls-4{fill:url(#linear-gradient-3);}.cls-5{fill:url(#linear-gradient-4);}.cls-6{fill:url(#linear-gradient-5);}</style><radialGradient id="radial-gradient" cx="3303.42" cy="1551.36" r="255.34" gradientTransform="translate(800.7 1508) scale(0.69 0.06)" gradientUnits="userSpaceOnUse"><stop offset="0" stop-opacity="0.4"/><stop offset="1" stop-color="#fff" stop-opacity="0"/></radialGradient><linearGradient id="linear-gradient" x1="2984.94" y1="1377.33" x2="3087" y2="1377.33" gradientUnits="userSpaceOnUse"><stop offset="0.05" stop-color="#ff547a"/><stop offset="0.38" stop-color="#ed2e54"/><stop offset="0.81" stop-color="#ed2e54"/><stop offset="1" stop-color="#ba0021"/></linearGradient><linearGradient id="linear-gradient-2" x1="3087" y1="1462.68" x2="3189.06" y2="1462.68" gradientUnits="userSpaceOnUse"><stop offset="0" stop-color="#2f7570"/><stop offset="0.18" stop-color="#5ea9a4"/><stop offset="0.62" stop-color="#5ea9a4"/><stop offset="1" stop-color="#84cfca"/></linearGradient><linearGradient id="linear-gradient-3" x1="2996.77" y1="1421.66" x2="3127.44" y2="1488.24" gradientUnits="userSpaceOnUse"><stop offset="0" stop-color="#c17725"/><stop offset="0.02" stop-color="#cc8026"/><stop offset="0.09" stop-color="#ea9a2a"/><stop offset="0.13" stop-color="#f5a42c"/><stop offset="0.62" stop-color="#f5a42c"/><stop offset="0.8" stop-color="#ffca52"/><stop offset="1" stop-color="#ffca52"/></linearGradient><linearGradient id="linear-gradient-4" x1="3060.01" y1="1342.35" x2="3164.64" y2="1412.92" gradientUnits="userSpaceOnUse"><stop offset="0" stop-color="#ffca52"/><stop offset="0.38" stop-color="#f5a42c"/><stop offset="0.81" stop-color="#f5a42c"/><stop offset="1" stop-color="#c17725"/></linearGradient><linearGradient id="linear-gradient-5" x1="3015.24" y1="1385.9" x2="3130.6" y2="1533.55" gradientUnits="userSpaceOnUse"><stop offset="0" stop-color="#c17725"/><stop offset="0.13" stop-color="#f5a42c" stop-opacity="0"/><stop offset="0.37" stop-color="#ffca52" stop-opacity="0"/></linearGradient></defs><path class="cls-1" d="M3062.32,1693.91c0,6.15-75.81,11.13-169.32,11.13s218.68-200.91,218.68-207.06,75.81-11.12,169.32-11.12S3062.32,1687.77,3062.32,1693.91Z" transform="translate(-2875.52 -1302.33)"/><path class="cls-2" d="M2996.14,1451.59c-1-19.36,3.26-38.44,14.22-55.67,12.2-19.4,34.4-35.05,57.19-38.16a51,51,0,0,1,19.45-3.85v-50.84a102,102,0,0,0-90.86,148.52Z" transform="translate(-2875.52 -1302.33)"/><path class="cls-3" d="M3177.86,1358.21c1,19.36-3.26,38.44-14.22,55.68-12.2,19.39-34.4,35-57.19,38.15a51,51,0,0,1-19.45,3.85v111.27s102.06-106.21,102.06-162.49A101.57,101.57,0,0,0,3177.86,1358.21Z" transform="translate(-2875.52 -1302.33)"/><path class="cls-4" d="M3035.78,1405.13a51.29,51.29,0,0,1,31.77-47.37c-22.79,3.11-45,18.76-57.19,38.16-11,17.23-15.26,36.31-14.22,55.67,16.94,33,90.86,116,90.86,116V1456.34A51.27,51.27,0,0,1,3035.78,1405.13Z" transform="translate(-2875.52 -1302.33)"/><path class="cls-5" d="M3138.21,1404.39c0,21.36-13.14,40.43-31.76,48.1,22.79-3.11,45-18.48,57.43-38.54a93,93,0,0,0,14-55.28c-16.94-33-51.31-56.34-90.86-56.34v51.58C3115.24,1353.91,3138.21,1376.15,3138.21,1404.39Z" transform="translate(-2875.52 -1302.33)"/><path class="cls-6" d="M3035.78,1405.13a51.29,51.29,0,0,1,31.77-47.37c-22.79,3.11-45,18.76-57.19,38.16-11,17.23-15.26,36.31-14.22,55.67,16.94,33,90.86,116,90.86,116V1456.34A51.27,51.27,0,0,1,3035.78,1405.13Z" transform="translate(-2875.52 -1302.33)"/></svg>